<?xml version="1.0" encoding="UTF-8" standalone="no"?>
<!-- Created with Inkscape (http://www.inkscape.org/) -->

<svg
   width="210mm"
   height="297mm"
   viewBox="0 0 210 297"
   version="1.1"
   id="svg5"
   inkscape:version="1.1.2 (b8e25be833, 2022-02-05)"
   sodipodi:docname="dibujo.svg"
   xmlns:inkscape="http://www.inkscape.org/namespaces/inkscape"
   xmlns:sodipodi="http://sodipodi.sourceforge.net/DTD/sodipodi-0.dtd"
   xmlns="http://www.w3.org/2000/svg"
   xmlns:svg="http://www.w3.org/2000/svg">
  <sodipodi:namedview
     id="namedview7"
     pagecolor="#ffffff"
     bordercolor="#cccccc"
     borderopacity="1"
     inkscape:pageshadow="0"
     inkscape:pageopacity="1"
     inkscape:pagecheckerboard="0"
     inkscape:document-units="mm"
     showgrid="false"
     inkscape:zoom="0.45254834"
     inkscape:cx="297.20582"
     inkscape:cy="671.75144"
     inkscape:window-width="1920"
     inkscape:window-height="1009"
     inkscape:window-x="-8"
     inkscape:window-y="-8"
     inkscape:window-maximized="1"
     inkscape:current-layer="g962" />
  <defs
     id="defs2" />
  <g
     inkscape:label="Capa 1"
     inkscape:groupmode="layer"
     id="layer1">
    <g
       style="fill:#7c7c7c;stroke:#ffffff;stroke-width:2;stroke-linecap:round;stroke-linejoin:round"
       id="g962"
       transform="matrix(0.26458333,0,0,0.26458333,-27.694498,-128.38628)">
      <path
         d="m 693.375,926.70001 -23,-14.1 -0.6,-0.2 -2.1,-1 -1.9,-1.6 -5.6,-5.9 -2.6,0.8 -0.9,1 -1.1,2 -1.1,1.1 -1.7,0.6 -1.4,0.1 -2.5,-0.2 -1.8,0.5 -3,1.5 -0.8,-0.4 -0.5,-2.9 -0.7,-2.4 -0.2,-0.5 -0.6,-0.6 -1,-0.6 -3.3,-1.1 -1.7,-1.2 -2.4,-3.4 -4.2,0.5 h -1.1 l -4.8,-1 -0.6,-0.2 -0.6,-0.5 -0.8,-0.9 -1.1,-1.7 -0.9,-1.8 -0.6,-1.6 -1.5,-3.1 -1.6,-2.8 -1,-0.8 -0.9,-0.4 -1.8,-0.2 -0.9,0.2 -1.6,0.8 -1.1,-0.3 -4.5,-2.2 -2.7,-1 -0.6,-0.1 -1.2,-1.1 -4.8,-6.3 -2,-3.3 -0.2,-1 -1.2,-1 -4.2,-1.4 -1.5,-2.7 -0.8,-2.2 -0.5,-2.1 -1.8,-0.3 -8.1,1.8 -1.3,-0.3 -1.3,-0.2 -0.6,0.1 -1.8,0.5 -2.6,1 h -1.3 l -0.5,-0.2 -0.5,-1 -0.2,-1.3 0.2,-1 0.7,-1.4 1.4,-2.4 3.9,-3.5 2.7,-1.9 1.6,-1.7 6.3,-10.3 -4.3,-1.9 -1.2,-0.8 0.3,-1.8 5.8,-9.6 10.1,-3.6 0.2,-0.1 5.8,-0.1 2,0.3 1.1,0.5 1.6,-0.4 2.7,-3.1 2.7,-0.3 1.2,-0.4 0.8,-0.7 0.7,-0.9 0.5,-1.8 -1,-4.9 -0.4,-5.8 -0.6,-2 -0.8,-1.2 -4.4,-5 -1.5,-0.9 -1.8,-1.3 -1.9,-1.7 -0.9,-1 -0.5,-0.9 -3,-10.5 27.4,12.4 9.6,4.5 13.2,6.3 21.5,10.1 5.7,2.1 31.6,0.2 23.2,0.5 4.4,0.9 -0.5,0.9 -2.7,4 -1.7,3.6 -0.7,3.9 0.3,4.9 2.5,7.9 0.6,4.1 -1.5,3.8 -9.3,11.7 -6.6,8.1 -1.8,2.7 -4.9,12.6 -12.7,15.2 -3,6.3 -0.8,6.8 0.5,2.1 0.5,2.7 1.3,3 1.6,2.1 1.4,2.9 z"
         id="CRI1327"
         name="Cartago" />
      <path
         d="m 632.775,635.90001 0.6,0.5 2.5,0.7 0.7,0.3 1,0.7 1.1,1 0.9,1 0.6,1.1 0.1,1.5 -0.6,4.5 0.2,1.9 1.5,1.6 0.8,0.7 1.9,1.2 0.8,0.7 1,1.3 -0.2,0.6 -1,-0.3 -1.6,-0.1 -2.3,0.6 -6.4,0.6 -1.3,0.2 -2.3,0.8 -3.7,2.4 -2.2,2.4 -0.8,0.6 -2.1,1.1 -1.9,1.3 -1.2,1.1 -0.4,1.3 -0.2,2 -0.3,6.8 0.1,2.1 -1.2,9.6 v 1.3 l 0.2,0.5 1,1.3 0.6,1 0.1,1.4 -0.3,1.8 0.2,1.4 0.9,2.2 0.1,1.7 -1.2,4.7 -2,3 -0.9,0.9 -0.9,0.7 -1.2,0.2 -0.5,0.2 -0.4,0.5 -1.8,3.4 -0.6,1 -0.8,1.6 -0.3,2.2 0.5,3.3 0.3,0.8 2.9,5.5 0.7,2.4 0.4,1.1 1.5,2.3 0.1,1.1 -0.2,1.6 -0.7,3.1 -0.2,2.7 0.1,0.7 -0.3,1.2 -0.6,1.6 -2.7,5.7 -0.6,1.1 -10.4,11.1 -8.1,0.8 -4.2,5.5 -1.3,1.4 -1.1,0.4 -4.8,0.4 -4.3,0.9 -9.6,0.7 -1.1,0.4 0.1,1.2 0.8,1.7 5,7.5 2.9,3.2 0.6,1.7 0.4,5.4 1.8,1.9 1,1 0.7,0.8 0.2,1.6 -1.3,4.4 -2.7,7.4 -4.3,2.5 -5.8,1.9 -2.2,0.4 -5.7,-0.4 h -1 l -8,3.7 -2.6,-1.1 -4.3,-2.2 -3.8,0.7 -0.4,-2 v -1.2 l 0.2,-1.2 1.1,-1.8 4,-4.3 v -0.5 l 2.6,-33.8 0.3,-30.6 0.4,-25.4 0.4,-35.9 0.6,-47.6 v -0.9 l 2,0.3 2.6,-0.5 4.1,4 2.5,1 2.5,-1.9 h 1.5 l 2.7,2.6 5.4,-3.5 3.7,0.9 2.6,-2.6 3,-0.5 2.4,1.6 1,3.8 13.2,10.5 1.5,0.7 2,0.3 2.2,-0.4 3,-2.1 1.5,-0.5 6,1.2 0.8,-0.5 4.5,-5.3 14.5,-5.5 z"
         id="CRI1328"
         name="Heredia" />
      <path
         d="m 813.375,1014.8 -2.2,-1.8 -0.7,-0.5 -3.6,-1.1 -3.7,-3.7 -1.1,-1.7 -1.4,-3.8 -1.1,-1.9 -0.9,-0.49999 -1.4,-0.7 -7.6,-2.1 -1.2,-0.9 -0.7,-1.2 -0.3,-0.8 -2.4,-11.9 -0.8,-2.2 -0.8,-1.4 -0.8,-0.7 -7.9,-4.5 -0.8,-0.6 -1.6,-1.5 -8.6,-11.2 -0.9,-0.2 -1.5,-0.2 -4.7,0.4 -3,0.5 h -0.8 l -1.1,-0.2 -1.6,-0.5 -3.4,-1.7 -2.1,-1.4 -1,-0.6 -4.1,-1.3 -2.1,-1.1 -4.1,-3.5 -0.9,-0.7 -1.1,-0.5 h -0.7 l -0.9,0.1 -1.7,0.9 -0.8,0.5 -0.5,0.6 -2.6,3.6 -0.3,0.4 -1,0.3 -4.1,0.4 -1.2,0.2 -0.8,0.4 -0.8,0.8 -0.9,0.7 -1,-0.2 -0.5,-1.7 -0.3,-1.3 -1.5,-1.2 -5.8,-1.6 -2.7,-2 -0.7,-0.7 -1.9,-2.6 -7.3,-20 -0.7,-2.4 -1.4,-2.9 -1.6,-2.1 -1.3,-3 -0.5,-2.7 -0.5,-2.1 0.8,-6.8 3,-6.3 12.7,-15.2 4.9,-12.6 1.8,-2.7 6.6,-8.1 9.3,-11.7 1.5,-3.8 -0.6,-4.1 -2.5,-7.9 -0.3,-4.9 0.7,-3.9 1.7,-3.6 2.7,-4 0.5,-0.9 -4.4,-0.9 -23.2,-0.5 -31.6,-0.2 -5.7,-2.1 -21.5,-10.1 -13.2,-6.3 -9.6,-4.5 -27.4,-12.4 2.9,-10.1 1.5,-1.9 1.9,-2 10.4,-11.1 0.6,-1.1 2.7,-5.7 0.6,-1.6 0.3,-1.2 -0.1,-0.7 0.2,-2.7 0.7,-3.1 0.2,-1.6 -0.1,-1.1 -1.5,-2.3 -0.4,-1.1 -0.7,-2.4 -2.9,-5.5 -0.3,-0.8 -0.5,-3.3 0.3,-2.2 0.8,-1.6 0.6,-1 1.8,-3.4 0.4,-0.5 0.5,-0.2 1.2,-0.2 0.9,-0.7 0.9,-0.9 2,-3 1.2,-4.7 -0.1,-1.7 -0.9,-2.2 -0.2,-1.4 0.3,-1.8 -0.1,-1.4 -0.6,-1 -1,-1.3 -0.2,-0.5 v -1.3 l 1.2,-9.6 -0.1,-2.1 0.3,-6.8 0.2,-2 0.4,-1.3 1.2,-1.1 1.9,-1.3 2.1,-1.1 0.8,-0.6 2.2,-2.4 3.7,-2.4 2.3,-0.8 1.3,-0.2 6.4,-0.6 2.3,-0.6 1.6,0.1 1,0.3 0.2,-0.6 -1,-1.3 -0.8,-0.7 -1.9,-1.2 -0.8,-0.7 -1.5,-1.6 -0.2,-1.9 0.6,-4.5 -0.1,-1.5 -0.6,-1.1 -0.9,-1 -1.1,-1 -1,-0.7 -0.7,-0.3 -2.5,-0.7 -0.6,-0.5 14.3,-3.5 7.7,-3.9 0.7,-6.1 -2,-7.9 -0.2,-9.6 0.1,-1.1 -0.3,-1.1 1.6,-1.2 1.3,0.3 h 1.4 l 1.5,0.1 4.4,5.2 5.6,10.3 4,11 -0.5,7 -3.2,-4 -5.8,-14.2 3.7,17.8 -0.3,7.2 -6.4,5.4 3.4,-0.6 2.2,-1.6 2.2,-1.9 2.8,-1.8 -1,1.1 -0.2,1.4 0.4,1.6 0.8,1.8 0.9,-2.6 0.9,-5.1 1.2,-2.8 10.7,29.5 13.3,31.5 15.7,26.4 41.8,55 3.3,2.6 14,17.1 8.6,8.6 5.2,-2.9 2,1.2 5.8,1.1 1.2,1.7 0.2,4.1 0.7,3.5 1.6,3.1 2.8,2.9 10.2,15.2 3.3,2.4 12.6,17.1 9.5,9 5.6,-1.7 1.3,3.5 1.2,9 2,4.1 3.4,2.6 14.7,5.1 5.2,0.5 5.2,-0.1 4.8,0.4 4.3,2.2 5.4,8.3 3.9,2.4 2.4,8.4 -1.7,0.1 -3.3,-1.8 -3.4,-0.6 -1.5,2.4 -1,8.6 -1.4,2.8 -2.9,0.5 -4.1,-0.7 -3.8,-1.2 -2.1,-1 -2.4,-2.6 -2.8,-5.4 -2.2,-2.5 -1.8,0.8 -2.1,-0.8 -9.1,-7.8 -12.7,-5.1 -4.1,0.5 -4,3.5 -2.5,3.5 -0.4,2 2.6,4.8 1.5,6.1 1,1.2 1.4,0.5 1,0.6 -0.3,1.8 -3.3,1.9 -11.7,1.6 -4.1,1.5 -1.8,3.1 -0.6,4.2 z"
         id="CRI1329"
         name="Limón" />
      <path
         d="m 609.375,1096.6 -1.7,0.7 -2.7,-0.5 -1.3,-1.2 2.8,-1.5 3.2,-0.1 z m -297.7,-227.09999 0.5,-0.6 2.3,-1.1 1.4,-2.9 1.2,-0.9 0.6,-0.6 0.4,-0.9 0.7,-2 0.9,-1.6 1.2,-1 0.1,-0.9 -0.6,-0.7 -0.3,-1 0.1,-1.3 2.2,-8.6 0.9,-2.2 0.6,-1.4 -0.1,-0.6 -0.4,-0.4 -3.2,-0.7 -1,-0.6 -0.3,-0.4 -0.3,-1.3 -0.2,-1.3 -0.5,-1 -1.1,-2 -1.2,-1.1 -0.9,-1.3 -1,-0.6 -1.7,-0.6 -1.4,-0.8 -1.3,-0.3 h -2 l -1.2,-0.3 -1.5,-0.8 -1.9,-0.4 h -1.4 l -2.1,0.3 -0.9,-0.2 -0.9,-0.4 -0.8,-0.8 -0.8,-1 -0.4,-1.3 1,-1.7 2,-1.9 5.4,-2.6 2.3,-0.7 1.4,-0.1 1.2,1.1 0.4,0.2 1.1,-0.3 5.6,-3.3 1.1,-0.5 4.8,-1.1 1.3,-1.8 2.2,-7.2 5,4.4 13.3,5.5 1.7,0.9 1.6,-0.6 3.5,1.4 8.4,4.9 3.9,1.3 4.2,0.1 4,-1.7 2.5,2.1 5.6,3.5 2.5,2.1 v 1.4 l -4.4,1.1 0.2,3.2 2.6,3.7 2.9,2.8 -1.8,0.6 -1.6,1.2 -2.7,2.7 3.2,1.5 3.9,0.4 7.9,-0.2 v 1.4 l -3.1,2.1 -3.9,1.6 -3.4,2.3 -1.5,3.9 -0.8,0.9 -5.2,3 -0.9,1.6 -1.1,4.1 -0.9,1.7 -6.9,-3.4 -3.7,-0.3 -1.5,3 0.9,1.8 3.4,4.3 -0.5,0.8 -7.1,3.5 -1.2,0.3 -0.8,1.2 -5.2,2.6 -1.1,1.8 -4.8,15.3 -2,3.9 -2.6,3.4 h -1.6 l -6.1,-12.7 -18.3,-24.8 z m 18.4,-84.3 2.1,1.2 0.9,-0.1 2.2,0.5 1.2,1.1 1.8,0.4 h 2.3 v 1.4 l -2.7,0.9 -3.4,0.8 -3.7,0.4 -3.7,-0.5 -3.8,-1.6 -2,-2 -3,-5.6 4.1,-1.4 1.8,-0.2 7,1.2 6.5,2 v 1.5 z m 125.8,62.1 -2,1.6 2.1,1 1.6,0.8 0.9,0.7 1.2,1.2 1.2,1.8 1.1,2 0.3,2.1 -0.3,1.8 -0.4,0.9 -0.4,0.6 -1,0.5 -1.3,0.3 -4.2,-0.3 -1.9,0.4 -0.9,0.6 -0.5,1 v 1.2 l 1.7,5.6 0.6,2.7 -0.2,4.3 0.1,0.6 0.5,1.4 4.9,8.5 0.1,0.5 1.5,7.4 0.6,1.7 0.9,2.1 1.4,1.8 1.5,1.5 0.7,0.5 2.3,0.2 6.8,-1.1 1.5,0.7 h 1.4 l 3.4,-0.9 1.4,0.1 1,0.5 1.4,1.6 1.1,0.5 1.2,-0.1 0.7,-0.3 0.6,-0.5 1.3,-2.7 0.9,-1 2.5,-2 0.8,-0.8 0.6,-1.2 0.2,-1.4 -0.8,-4.4 v -0.5 l 0.6,-0.4 1.2,-0.2 h 2.6 l 5.7,-1.1 9.4,-0.5 3.2,0.3 1.2,1.1 0.8,0.6 1.5,1.8 0.4,0.4 2.3,0.4 7.8,-0.2 2.9,1.2 3.2,0.3 9.8,-0.9 2,0.2 0.5,0.2 0.8,0.6 0.6,1 0.4,1.8 v 1.9 l -0.4,1.8 -0.1,1.5 v 0.6 l 0.4,0.8 0.8,1 1.6,1.5 1.7,0.6 1,0.2 2,-0.3 2.9,-0.1 2,0.3 1.6,0.7 0.5,0.8 0.5,1.3 0.4,2.7 v 1.4 l -0.2,0.9 -0.5,1 -0.5,1.1 0.8,1.4 4.8,2.2 3.6,6.9 5,4.9 14.3,9.6 3.4,1.1 0.3,-0.5 0.7,-0.8 1,-0.5 1.2,-0.3 1.3,0.1 0.7,0.5 0.7,0.8 1.6,2.8 0.3,0.9 0.9,4.3 0.2,0.6 7.1,7.2 1.5,1.9 0.8,1.4 -0.3,2.2 v 1.3 l 0.4,2.5 1.4,4.5 1,2.1 0.6,0.9 0.8,0.9 1.5,1.4 10.9,4.9 1.7,0.5 1.1,-0.3 0.8,-0.7 1.9,-2.7 0.4,-0.3 1.1,-0.5 1.4,-0.3 h 0.5 l 1.3,0.3 2.1,1 3,2.9 5,6.2 0.8,1.3 0.2,1.2 1.6,5.7 0.8,1.3 1.5,1.8 19.9,12.89999 0.5,0.3 2.4,-0.2 1.9,-0.3 1.3,0.1 0.6,0.2 0.9,0.7 1.3,1.5 1,0.6 1.2,0.3 1.1,-0.2 0.8,-0.7 2.4,-3.3 0.8,-0.7 1.6,-1 0.4,-0.4 0.3,-0.8 0.2,-1.2 -0.6,-5.1 0.1,-0.9 0.3,-1.2 1.7,-3.09999 0.4,-1.3 -0.1,-2.7 -0.2,-1.2 -1.1,-2.4 -0.4,-0.3 -1.7,0.1 -0.5,-0.2 -1.2,-1.1 -0.4,-0.2 -2,-0.4 -0.7,-0.7 -0.1,-0.6 2.2,-11.2 0.2,-0.6 0.7,-1.1 6,-6.7 1,-2.2 1.5,-5.4 0.7,-1.2 0.5,-0.8 4.8,-5 5.8,1.6 1.5,1.2 0.3,1.3 0.5,1.7 1,0.2 0.9,-0.7 0.8,-0.8 0.8,-0.4 1.2,-0.2 4.1,-0.4 1,-0.3 0.3,-0.4 2.6,-3.6 0.5,-0.6 0.8,-0.5 1.7,-0.9 0.9,-0.1 h 0.7 l 1.1,0.5 0.9,0.7 4.1,3.5 2.1,1.1 4.1,1.3 1,0.6 2.1,1.4 3.4,1.7 1.6,0.5 1.1,0.2 h 0.8 l 3,-0.5 4.7,-0.4 1.5,0.2 0.9,0.2 8.6,11.2 1.6,1.5 0.8,0.6 7.9,4.5 0.8,0.7 0.8,1.4 0.8,2.2 2.4,11.9 0.3,0.8 0.7,1.2 1.2,0.9 7.6,2.1 1.4,0.7 0.9,0.49999 1.1,1.9 1.4,3.8 1.1,1.7 3.7,3.7 3.6,1.1 0.7,0.5 2.2,1.8 v 2.5 l 6.6,-2.8 h 2 l 1.5,1.1 0.8,1.7 0.6,1.8 1,1.3 1.3,0.8 4.9,2.2 10,7.4 10,3.5 3,1.9 5.6,9.6 0.9,2.1 -3.2,5.2 -6.5,4 -22.6,9.3 -2.6,1.8 -2.1,2.9 1,1 1.8,1.1 -0.1,3 -2,2.4 -6.5,4.1 -1.8,1.9 -0.3,3.3 1.1,3.1 2,2.9 6.8,7.8 3.7,5.1 2.7,5.8 1.8,6.7 1.3,15.4 -0.7,7.8 -2,6.6 -4.9,6 -5.7,2.8 -6.2,1.9 -6.3,3.2 -9.7,9.3 -10,5.7 -1.9,1.5 -0.3,2.8 2.1,2.2 6.1,3.6 1.2,1.2 2.1,3.2 1.2,0.9 1.4,0.1 2.6,-1 2,0.2 3.9,2.1 1.5,2.2 1,7.1 11.5,25.3 -1.1,9.9 -1.4,5.1 -2.9,-2.4 0.3,-3.3 1.7,-3.8 0.9,-3.4 -0.6,-2.7 -14.9,-25.7 -5.3,-5.6 -27.2,-19.8 -7.4,-7.4 6.4,-7.9 1.2,-0.6 1.2,-2.3 2.4,-2.9 1.5,-3.4 -1.4,-3.6 -7.1,-9 -1.2,-2.5 -0.2,-3.3 1.6,-1.1 2.7,-0.8 3.5,-2.2 -2.6,-0.8 -6.4,0.3 -3.1,-1.2 -1.7,-1.8 -4.3,-8.6 0.7,-1.2 0.8,-2 h 1.5 l 2.1,3.6 0.6,1.8 0.3,2.9 0.9,0.5 6.5,-2.6 v -1.6 l -3,-1.3 -3.1,-2.4 -2.7,-2.8 -1.6,-2.6 h -1.5 l -1.7,2.7 -4,0.2 -4.5,-0.6 -3.4,0.7 -1.6,-3 -2.6,-3.1 -3,-1.6 -3.2,1.7 -6.9,-4.1 -2,-3.4 1.3,-4.7 -1.5,-0.1 -1.5,0.1 0.9,-3.6 -3.1,-1.7 -4.6,-1 -3.6,-1.2 -1.3,2.6 -1.2,-0.2 -1.4,-1.1 -2.3,0.1 -1,1.1 -0.3,1.6 -0.9,1.4 -2.9,0.5 -7.3,-1.1 -2.9,1.1 -1.1,4.4 1.6,-1.2 1.4,-0.1 7.7,11.6 1,3.5 4.5,7.1 1.7,2.1 2.9,1.5 8.2,2.5 3.3,0.4 3,1.8 2.9,3.6 2.7,2.3 2.7,-1.6 0.2,5.4 -0.5,2.3 -1.3,1.5 v 1.5 l 3.3,4.5 1.3,7.8 -0.5,8.1 -2.5,5.5 -4.9,0.1 -8,-2.6 -7.5,-3.6 -3.6,-3 h 1.3 l 1,0.8 0.8,0.3 3,0.4 -4.2,-1.9 -1.8,-1.1 -1.8,-1.7 v 3.2 l -12.6,-5.6 -4.5,-0.6 -13.4,1.6 h -3.7 l -3.2,-1.5 -2.9,-3 -5.4,-6.9 -19,-17.8 -1.2,-2.1 -1,-0.2 -4.5,-1.8 -1.3,-0.9 -0.7,-6.9 6.7,-10.3 1.5,-1.8 3.5,-2.1 2.3,-0.9 1.1,0.7 0.7,1.3 1.5,-1.5 5.3,-8.2 1.5,-1.5 -2.8,-3.6 3.3,-3.9 6,-3.3 5.4,-1.4 v -1.3 l -4.7,-0.6 -2.4,0.2 -1.6,1.3 -2.6,2.8 -2.5,1.2 -0.9,-2.1 1.1,-3.8 3,-3.7 5.5,-2.7 2.5,-1.7 1,-2.5 -1.4,-2.2 -2.8,-1.6 -2.6,-2.1 -0.5,-3.9 4.2,2.2 2,0.6 2.7,0.1 -1.3,-1.6 -1.6,-1.2 -3.2,-1.7 -1.3,-1.1 -0.8,-1.1 -1.2,-0.7 -2.5,-0.1 2.6,-1.7 -0.3,-1.1 -1.6,-0.9 -0.7,-0.8 1,-2.4 1.1,-1.8 1.5,-1.6 2.2,-1.9 -5.8,-15.3 -1.1,-1.9 -3.6,-4 -1.5,1.5 -4.9,-6.4 -4.5,-7.5 -5.7,-5.79999 -8.8,-1.6 0.5,-5.7 -4.8,-4.9 -6.6,-3.4 -4.9,-1.3 -17.2,-16.5 -16.9,-7.9 -2.7,-2.1 -21.1,-8.4 h -1.4 l -1.4,1.1 h -1.2 l -1,-1 -0.9,-1.7 -3,1.3 -1.8,-1.5 -2,-2.1 -3.7,-0.6 2.3,-4.1 -3.1,-5.8 -5.7,-5.1 -5.5,-1.8 v 1.5 l 1.9,0.3 1.3,0.6 2.9,2.1 -5.7,-1 -9,-5.4 -5.8,-1.2 -5.5,-0.4 -29.3,-8.2 -5.6,-0.5 -2.7,0.5 -2.8,0.9 -2.9,0.6 -2.9,-0.5 -2.6,-2.1 -0.9,-2.7 -1,-2.1 -3,-0.7 0.9,1.6 0.5,1.6 -3.7,-2.9 -8.1,-5.3 -1.6,-3.3 -0.7,-3.1 -2,-1.4 -2.4,-1 -2.4,-1.5 -0.7,-2.2 0.3,-2.4 -0.6,-1.5 -3.4,0.2 0.8,-2.5 -0.2,-2.5 -0.6,-2.2 v -2 l 1.3,-2.5 3.7,-3.8 1.5,-3.8 1.6,-1.9 1.5,-2.4 0.7,-3.2 -0.7,-2.6 -1.7,-2.3 -3.5,-3.5 -8.8,-13.2 -2.5,-2 -3.6,-1.5 0.5,-3.4 3.1,-5.1 -5.4,-4.4 -1,-2.2 1.2,-3.3 -6.3,-1.9 -19.4,1.9 v -1.6 l 2.7,-1.1 3.4,-0.4 7.6,0.1 v -1.5 l -7,-0.4 -6.2,-1.1 -5.7,-1.9 -5.2,-2.8 -6.6,-5.6 -1,-1.1 -1.4,-0.4 -2.8,-1.9 -1.9,-2.1 1,-1 -3.7,-1.9 -8.9,-8.4 -4.8,-2.4 -2.3,-2.1 -1.4,-0.5 -1.1,0.5 -0.9,0.8 -1.3,0.2 -1.9,-1.5 1.3,-2.4 0.4,-1.5 4.4,-1.3 h 1.8 l 1.4,0.1 3.2,-0.4 1,0.4 1.3,1 1.1,0.4 0.9,-0.1 1.1,-0.4 0.9,-0.1 1.4,0.2 1,0.4 2.1,1.1 2,1.7 2.7,3.4 0.8,0.8 1.7,1.4 2.1,1 1.1,0.4 0.5,-0.1 0.4,-0.3 -0.1,-0.9 -0.9,-2.4 -0.2,-1.2 0.2,-2.1 0.6,-1 1,-1.2 4,-3.5 0.9,-0.7 4.2,-1.8 0.9,-1.3 0.1,-1.7 -0.2,-0.8 -0.3,-0.6 -1,-1.3 -0.4,-1 0.3,-1.4 1.3,-2.8 0.2,-0.7 0.5,-4.3 1,-2.9 0.1,-0.6 -0.2,-1.2 -0.3,-0.4 -1.6,-1.5 -0.6,-0.9 -0.1,-1.3 0.1,-0.6 1,-1.7 1,-1 1.3,-0.9 2,-1 0.8,-0.7 1.9,-2 1.3,-0.9 1.7,-0.5 h 1.6 1.1 l 1.3,0.4 0.9,0.5 3.4,2.8 5,7.8 1.4,1.7 1.8,1.3 1.2,0.1 1.8,-0.1 4.2,-0.8 3,-0.8 1.4,-0.9 1.1,-0.4 1.7,0.2 3.9,2.6 1.2,3.4 0.9,1.3 1.6,1.4 0.1,0.8 -0.2,1.2 -2.3,4.2 -0.7,1.7 -1.3,4.9 0.2,1.8 1.2,2.2 0.3,2.1 -0.8,5.6 1,3.5 2.4,5.1 1.3,2 3.6,4.4 1.8,2.9 3.6,4.3 1.3,2.2 0.7,1.5 1.2,0.2 1.6,-0.5 1.8,-1.3 0.5,-0.3 1.6,0.8 2.8,4.6 -0.2,1.6 -0.2,0.5 -0.7,0.7 -1.1,0.6 -3.4,1.3 -10.8,7.1 -2.4,0.7 -1.7,1.7 -4.1,6.4 -1.5,0.7 -0.8,0.8 -0.1,0.6 0.1,1.3 -0.4,1.2 0.8,0.8 1.5,1.1 4.6,1.8 3.6,1 2.8,0.2 2.7,0.5 1.9,1.5 z"
         id="CRI1330"
         name="Puntarenas"
         sodipodi:nodetypes="ccccccccccccccccccccccccccccccccccccccccccccccccccccccccccccccccccccccccccccccccccccccccccccccccccccccccccccccccccccccccccccccccccccccccccccccccccccccccccccccccccccccccccccccccccccccccccccccccccccccccccccccccccccccccccccccccccccccccccccccccccccccccccccccccccccccccccccccccccccccccccccccccccccccccccccccccccccccccccccccccccccccccccccccccccccccccccccccccccccccccccccccccccccccccccccccccccccccccccccccccccccccccccccccccccccccccccccccccccccccccccccccccccccccccccccccccccccccccccccccccccccccccccccccccccccccccccccccccccccccccccccccccccccccccccccccccccccccccccccccccccccccccccccccccccccccccccccccccccccccccccccccccccccccccccccccccccccccccccccccccccccccccccccccccccccccccccccccccccccccccccccccccccccccccccccccccccccccccccccccccccccccccccccccccccccccccccccccccccccccccccccccccccccccccccccccccccccccccccccccccccccccccccccccccc" />
      <path
         d="m 593.575,778.00001 3,10.5 0.5,0.9 0.9,1 1.9,1.7 1.8,1.3 1.5,0.9 4.4,5 0.8,1.2 0.6,2 0.4,5.8 1,4.9 -0.5,1.8 -0.7,0.9 -0.8,0.7 -1.2,0.4 -2.7,0.3 -2.7,3.1 -1.6,0.4 -1.1,-0.5 -2,-0.3 -5.8,0.1 -0.2,0.1 -10.1,3.6 -5.8,9.6 -0.3,1.8 1.2,0.8 4.3,1.9 -6.3,10.3 -1.6,1.7 -2.7,1.9 -3.9,3.5 -1.4,2.4 -0.7,1.4 -0.2,1 0.2,1.3 0.5,1 0.5,0.2 h 1.3 l 2.6,-1 1.8,-0.5 0.6,-0.1 1.3,0.2 1.3,0.3 8.1,-1.8 1.8,0.3 0.5,2.1 0.8,2.2 1.5,2.7 4.2,1.4 1.2,1 0.2,1 2,3.3 4.8,6.3 1.2,1.1 0.6,0.1 2.7,1 4.5,2.2 1.1,0.3 1.6,-0.8 0.9,-0.2 1.8,0.2 0.9,0.4 1,0.8 1.6,2.8 1.5,3.1 0.6,1.6 0.9,1.8 1.1,1.7 0.8,0.9 0.6,0.5 0.6,0.2 4.8,1 h 1.1 l 4.2,-0.5 2.4,3.4 1.7,1.2 3.3,1.1 1,0.6 0.6,0.6 0.2,0.5 0.7,2.4 0.5,2.9 0.8,0.4 3,-1.5 1.8,-0.5 2.5,0.2 1.4,-0.1 1.7,-0.6 1.1,-1.1 1.1,-2 0.9,-1 2.6,-0.8 5.6,5.9 1.9,1.6 2.1,1 0.6,0.2 23,14.1 7.3,20 1.9,2.6 0.7,0.7 2.7,2 -4.8,5 -0.5,0.8 -0.7,1.2 -1.5,5.4 -1,2.2 -6,6.7 -0.7,1.1 -0.2,0.6 -2.2,11.2 0.1,0.6 0.7,0.7 2,0.4 0.4,0.2 1.2,1.1 0.5,0.2 1.7,-0.1 0.4,0.3 1.1,2.4 0.2,1.2 0.1,2.7 -0.4,1.3 -1.7,3.09999 -0.3,1.2 -0.1,0.9 0.6,5.1 -0.2,1.2 -0.3,0.8 -0.4,0.4 -1.6,1 -0.8,0.7 -2.4,3.3 -0.8,0.7 -1.1,0.2 -1.2,-0.3 -1,-0.6 -1.3,-1.5 -0.9,-0.7 -0.6,-0.2 -1.3,-0.1 -1.9,0.3 -2.4,0.2 -0.5,-0.3 -19.9,-12.89999 -1.5,-1.8 -0.8,-1.3 -1.6,-5.7 -0.2,-1.2 -0.8,-1.3 -5,-6.2 -3,-2.9 -2.1,-1 -1.3,-0.3 h -0.5 l -1.4,0.3 -1.1,0.5 -0.4,0.3 -1.9,2.7 -0.8,0.7 -1.1,0.3 -1.7,-0.5 -10.9,-4.9 -1.5,-1.4 -0.8,-0.9 -0.6,-0.9 -1,-2.1 -1.4,-4.5 -0.4,-2.5 v -1.3 l 0.3,-2.2 -0.8,-1.4 -1.5,-1.9 -7.1,-7.2 -0.2,-0.6 -0.9,-4.3 -0.3,-0.9 -1.6,-2.8 -0.7,-0.8 -0.7,-0.5 -1.3,-0.1 -1.2,0.3 -1,0.5 -0.7,0.8 -0.3,0.5 -3.4,-1.1 -14.3,-9.6 -5,-4.9 -3.6,-6.9 -4.8,-2.2 -0.8,-1.4 0.5,-1.1 0.5,-1 0.2,-0.9 v -1.4 l -0.4,-2.7 -0.5,-1.3 -0.5,-0.8 -1.6,-0.7 -2,-0.3 -2.9,0.1 -2,0.3 -1,-0.2 -1.7,-0.6 -1.6,-1.5 -0.8,-1 -0.4,-0.8 v -0.6 l 0.1,-1.5 0.4,-1.8 v -1.9 l -0.4,-1.8 -0.6,-1 -0.8,-0.6 -0.5,-0.2 -2,-0.2 -9.8,0.9 -3.2,-0.3 -2.9,-1.2 -7.8,0.2 -2.3,-0.4 -0.4,-0.4 -1.5,-1.8 -0.8,-0.6 -1.2,-1.1 -3.2,-0.3 -9.4,0.5 -5.7,1.1 h -2.6 l -1.2,0.2 -0.6,0.4 v 0.5 l 0.8,4.4 -0.2,1.4 -0.6,1.2 -0.8,0.8 -2.5,2 -0.9,1 -1.3,2.7 -0.6,0.5 -0.7,0.3 -1.2,0.1 -1.1,-0.5 -1.4,-1.6 -1,-0.5 -1.4,-0.1 -3.4,0.9 h -1.4 l -1.5,-0.7 -6.8,1.1 -2.3,-0.2 -0.7,-0.5 -1.5,-1.5 -1.4,-1.8 -0.9,-2.1 -0.6,-1.7 -1.5,-7.4 -0.1,-0.5 -4.9,-8.5 -0.5,-1.4 -0.1,-0.6 0.2,-4.3 -0.6,-2.7 -1.7,-5.6 v -1.2 l 0.5,-1 0.9,-0.6 1.9,-0.4 4.2,0.3 1.3,-0.3 1,-0.5 0.4,-0.6 0.4,-0.9 0.3,-1.8 -0.3,-2.1 -1.1,-2 -1.2,-1.8 -1.2,-1.2 -0.9,-0.7 -1.6,-0.8 -2.1,-1 2,-1.6 h 1.6 l 0.3,-0.4 0.3,-1.7 0.4,-0.9 4,-5 0.1,-1.3 0.6,-0.8 1.5,-1.1 3.7,-2 2.6,-2.5 0.5,-0.8 1.7,-1.1 6.8,-3 9.7,-0.8 5.4,-1.1 4.2,1.2 4.4,0.8 1.9,0.5 2.6,0.3 1.1,0.4 3.9,-0.6 14.7,-4.1 6.1,-2 3.2,-3.5 3.8,-0.7 4.3,2.2 2.6,1.1 8,-3.7 h 1 l 5.7,0.4 2.2,-0.4 5.8,-1.9 4.3,-2.5 2.7,-7.4 1.3,-4.4 -0.2,-1.6 -0.7,-0.8 -1,-1 -1.8,-1.9 -0.4,-5.4 -0.6,-1.7 -2.9,-3.2 -5,-7.5 -0.8,-1.7 -0.1,-1.2 1.1,-0.4 9.6,-0.7 4.3,-0.9 4.8,-0.4 1.1,-0.4 1.3,-1.4 4.2,-5.5 8.1,-0.8 -1.9,2 -1.5,1.9 z"
         id="CRI1331"
         name="San José" />
      <path
         d="m 546.375,632.60001 v 0.9 l -0.6,47.6 -0.4,35.9 -0.4,25.4 -0.3,30.6 -2.6,33.8 v 0.5 l -4,4.3 -1.1,1.8 -0.2,1.2 v 1.2 l 0.4,2 -3.2,3.5 -6.1,2 -14.7,4.1 -3.9,0.6 -1.1,-0.4 -2.6,-0.3 -1.9,-0.5 -4.4,-0.8 -4.2,-1.2 -5.4,1.1 -9.7,0.8 -6.8,3 -1.7,1.1 -0.5,0.8 -2.6,2.5 -3.7,2 -1.5,1.1 -0.6,0.8 -0.1,1.3 -4,5 -0.4,0.9 -0.3,1.7 -0.3,0.4 h -1.6 l -4.8,-6.4 -1.9,-1.5 -2.7,-0.5 -2.8,-0.2 -3.6,-1 -4.6,-1.8 -1.5,-1.1 -0.8,-0.8 0.4,-1.2 -0.1,-1.3 0.1,-0.6 0.8,-0.8 1.5,-0.7 4.1,-6.4 1.7,-1.7 2.4,-0.7 10.8,-7.1 3.4,-1.3 1.1,-0.6 0.7,-0.7 0.2,-0.5 0.2,-1.6 -2.8,-4.6 -1.6,-0.8 -0.5,0.3 -1.8,1.3 -1.6,0.5 -1.2,-0.2 -0.7,-1.5 -1.3,-2.2 -3.6,-4.3 -1.8,-2.9 -3.6,-4.4 -1.3,-2 -2.4,-5.1 -1,-3.5 0.8,-5.6 -0.3,-2.1 -1.2,-2.2 -0.2,-1.8 1.3,-4.9 0.7,-1.7 2.3,-4.2 0.2,-1.2 -0.1,-0.8 -1.6,-1.4 -0.9,-1.3 -1.2,-3.4 -3.9,-2.6 -1.7,-0.2 -1.1,0.4 -1.4,0.9 -3,0.8 -4.2,0.8 -1.8,0.1 -1.2,-0.1 -1.8,-1.3 -1.4,-1.7 -5,-7.8 3.6,-6.7 0.3,-2.3 -0.8,-1.4 -0.6,-1.5 -0.9,-4.1 3.4,-12.3 -4.8,-9.6 -1.6,-2.5 -12.5,-9.7 -4,-2 -12,-3.2 -3.1,-1.2 -2.3,-2.6 -5.9,-5.3 -0.7,-0.8 -1.2,-1.9 -0.7,-1.6 -1,-6 -2.5,-4.5 -3.1,-4.9 -1.3,-1.5 -1.4,-0.9 -3,-1.3 -2.4,-0.7 -11.7,-2.8 -3.4,-1.1 -1.3,-1 -1.7,-1.6 -6.5,-4.4 -1.7,-0.9 -1.2,-0.5 -1.4,-0.1 h -1.5 l -2.7,0.3 -4.8,1.2 -5.7,0.6 -6.5,-0.3 -5.4,-10.7 -2,-2.9 -1.4,-1.1 -1.1,-0.4 -5,-0.6 -1.3,-0.5 -5.3,-3.1 -2.5,-1.9 -10,-11.6 -0.7,-1.3 v -1.1 l 0.8,-1 7.5,-0.6 2,-0.8 0.6,-1.1 0.5,-0.9 17.2,-11.8 10.4,-11.9 0.9,-0.6 1.4,-0.3 1.3,-0.4 1.7,-0.4 0.5,-0.5 31.5,11.7 35.3,13.2 5.1,0.5 5.1,-1.8 38.8,-25.8 6.9,-1.6 3.9,1.7 8.3,6 3.8,0.6 4.8,-0.3 5,1.6 10.9,4.9 1.2,0.3 1.2,0.4 1,0.6 0.9,0.7 5,6.2 1.9,1.6 2,1.1 2.3,1 2.4,0.2 2.1,-0.9 11.8,-7.7 1.8,-1.1 2.1,1 0.5,1.7 v 2.3 l 0.4,2.7 1,1.7 2.9,3.6 0.6,1.6 2.3,2.2 10.2,3.9 2.3,1.6 2,2.2 4.2,2.1 3.8,3.2 0.8,5.4 -3.1,1.6 -0.9,0.6 -1,1.7 0.5,1.3 0.8,0.9 0.5,0.8 4.9,3.9 1.1,1.5 2.5,-1.8 3.4,0.1 z"
         id="CRI1333"
         name="Alajuela" />
      <path
         d="m 310.075,573.50001 -0.5,0.5 -1.7,0.4 -1.3,0.4 -1.4,0.3 -0.9,0.6 -10.4,11.9 -17.2,11.8 -0.5,0.9 -0.6,1.1 -2,0.8 -7.5,0.6 -0.8,1 v 1.1 l 0.7,1.3 10,11.6 2.5,1.9 5.3,3.1 1.3,0.5 5,0.6 1.1,0.4 1.4,1.1 2,2.9 5.4,10.7 6.5,0.3 5.7,-0.6 4.8,-1.2 2.7,-0.3 h 1.5 l 1.4,0.1 1.2,0.5 1.7,0.9 6.5,4.4 1.7,1.6 1.3,1 3.4,1.1 11.7,2.8 2.4,0.7 3,1.3 1.4,0.9 1.3,1.5 3.1,4.9 2.5,4.5 1,6 0.7,1.6 1.2,1.9 0.7,0.8 5.9,5.3 2.3,2.6 3.1,1.2 12,3.2 4,2 12.5,9.7 1.6,2.5 4.8,9.6 -3.4,12.3 0.9,4.1 0.6,1.5 0.8,1.4 -0.3,2.3 -3.6,6.7 -3.4,-2.8 -0.9,-0.5 -1.3,-0.4 h -1.1 -1.6 l -1.7,0.5 -1.3,0.9 -1.9,2 -0.8,0.7 -2,1 -1.3,0.9 -1,1 -1,1.7 -0.1,0.6 0.1,1.3 0.6,0.9 1.6,1.5 0.3,0.4 0.2,1.2 -0.1,0.6 -1,2.9 -0.5,4.3 -0.2,0.7 -1.3,2.8 -0.3,1.4 0.4,1 1,1.3 0.3,0.6 0.2,0.8 -0.1,1.7 -0.9,1.3 -4.2,1.8 -0.9,0.7 -4,3.5 -1,1.2 -0.6,1 -0.2,2.1 0.2,1.2 0.9,2.4 0.1,0.9 -0.4,0.3 -0.5,0.1 -1.1,-0.4 -2.1,-1 -1.7,-1.4 -0.8,-0.8 -2.7,-3.4 -2,-1.7 -2.1,-1.1 -1,-0.4 -1.4,-0.2 -0.9,0.1 -1.1,0.4 -0.9,0.1 -1.1,-0.4 -1.3,-1 -1,-0.4 -3.2,0.4 -1.4,-0.1 h -1.8 l -4.4,1.3 -1,-0.7 -0.8,-0.4 -2.9,-2.6 -3.9,1.3 -14.9,0.2 -3.9,-1 -3.5,-2.5 -5.5,-5.7 v -1.4 l 1.3,-4.1 -3.9,-4.7 -9.4,-6.6 1.4,4.5 6.3,4.7 1.5,5.4 0.5,10.4 1.4,6 2.5,4.1 -2.8,1.9 0.4,3.1 2.6,2.9 6.7,2.3 2.4,2.6 2.8,5.6 h 1.4 l 1.8,-0.7 0.7,0.6 0.4,1.5 -1.9,0.1 -2,-0.2 -1.9,-0.6 -1.6,-0.7 v 1.4 l 4.1,3.7 -2.2,7.2 -1.3,1.8 -4.8,1.1 -1.1,0.5 -5.6,3.3 -1.1,0.3 -0.4,-0.2 -1.2,-1.1 -1.4,0.1 -2.3,0.7 -5.4,2.6 -2,1.9 -1,1.7 0.4,1.3 0.8,1 0.8,0.8 0.9,0.4 0.9,0.2 2.1,-0.3 h 1.4 l 1.9,0.4 1.5,0.8 1.2,0.3 h 2 l 1.3,0.3 1.4,0.8 1.7,0.6 1,0.6 0.9,1.3 1.2,1.1 1.1,2 0.5,1 0.2,1.3 0.3,1.3 0.3,0.4 1,0.6 3.2,0.7 0.4,0.4 0.1,0.6 -0.6,1.4 -0.9,2.2 -2.2,8.6 -0.1,1.3 0.3,1 0.6,0.7 -0.1,0.9 -1.2,1 -0.9,1.6 -0.7,2 -0.4,0.9 -0.6,0.6 -1.2,0.9 -1.4,2.9 -2.3,1.1 -0.5,0.6 -1.2,-2.8 -0.9,-1 -2,-1.3 -5.5,-2.3 -0.5,-1.8 0.1,-2 -0.2,-1.5 -5.2,-5.8 -7.2,-4.1 -23.6,-8.5 -2.1,0.5 -3.1,2.2 -1.5,0.5 -2.1,-0.5 -2.9,-2.2 -2.5,-0.5 -1.4,-0.1 -0.5,-0.4 -0.2,-0.6 -0.8,-1 -1.6,-0.7 -1.2,0.3 -0.9,0.7 -0.1,0.4 -12.4,-4 -6,-0.9 -1.4,-0.9 -1.1,-1 -1.7,-0.9 -2.5,0.1 -1.6,1 -1.4,0.1 -2,-2.6 1.6,-4.1 -2.3,-5.6 -22.5,-27.7 -1.3,-2.5 -1.8,-5.9 -2.7,-4.2 -8.5,-21.1 -0.8,-6.3 -0.9,-3.8 -1.3,-2.8 3,-3 1.2,-2.1 -0.4,-1.8 -4.7,-6 -2.9,-1.8 1.6,-2.2 3.8,-3 2.6,-3.8 1.8,-3.7 3.7,1.5 2,-2.3 1.6,-3.5 4.7,-3.5 -1.8,-4 -3.3,-4.2 -2.3,-2.4 1.9,-1.2 1.1,-0.3 v -1.5 h -3 v -1.5 l 2.5,-0.5 1.6,-1.6 1.9,-4.2 h 1.5 l 3,2.5 4.3,-1.8 4.4,-2.4 3.3,0.4 h 1.4 l -0.3,-3 0.8,-1.4 1.2,-0.7 1.2,-1 2,-3.5 0.8,0.2 2.7,0.2 6.6,-6.9 -0.5,-1.8 -1.2,-1.5 -2.8,-1.9 -9,9.1 -0.2,-0.8 v -0.6 l -0.2,-0.4 -1.1,0.1 v -1.4 l 2.5,-2.7 1.6,-1.2 1.9,-0.6 -1.5,-1.5 -0.9,1.1 -0.7,0.4 0.5,-1.9 0.1,-0.6 2.5,-0.7 v -1.4 h -1.5 v -1.7 l 3.7,-2.9 0.7,-7.6 -1.3,-14.7 -3.3,-3.9 -7.2,-3.2 -7.3,-1.2 -3.3,2.3 h -1.3 l -6,-5.1 -1.8,-1.9 1.1,0.4 1.3,-0.6 0.5,-1.3 -1.2,-1.5 -1.6,-0.4 -4.3,0.4 h -1.7 l -6.5,-2.5 -5.1,-2.9 -5.6,-2.6 -8.3,-1 v -1.7 l 5,-1.2 9.3,-4.3 5.2,-0.6 -0.9,-1.4 -0.6,-0.8 -1,-0.5 -2,-0.3 v -1.5 l 10.8,-0.7 2.8,0.7 1.1,1.7 -0.3,2 -0.5,1.6 0.4,0.7 0.9,0.5 2.9,2.6 h 1.3 l 1.7,-1.7 v -1.4 l -2.5,-2.4 2.4,-1.6 4.6,-0.7 4.4,0.2 1.5,0.7 2,1.9 1.8,0.4 1.4,-0.5 0.6,-1.3 -0.2,-1.5 -1.1,-1.2 v -1.7 l 3.3,-1.2 0.9,-2.5 -0.8,-2.9 -1.8,-2.6 -1.5,-1.1 -3.7,-1.6 -1.6,-1.1 -1.9,-1.9 v -0.6 l 1.1,-0.2 1.5,-1.1 3.4,-3.1 1.9,1.1 2.3,2.1 4.4,-0.1 2.6,-2.4 -0.5,-3.3 -2.4,-3.1 -2.7,-2 -1.9,-0.8 5.3,-8.6 4,-8.8 6.2,-8.3 7.3,-3.1 6.3,3.3 6.2,5.5 7.1,4 22.1,8.3 z"
         id="CRI1334"
         name="Guanacaste" />
      <circle
         cx="636.29999"
         cy="368.10001"
         id="0"
         r="0" />
      <circle
         cx="747.5"
         cy="402.39999"
         id="1"
         r="0" />
      <circle
         cx="921.5"
         cy="526.29999"
         id="2"
         r="0" />
    </g>
  </g>
</svg>
